<svg width="40" height="40" viewBox="0 0 40 40" fill="none" xmlns="http://www.w3.org/2000/svg">
<path opacity="0.7" fill-rule="evenodd" clip-rule="evenodd" d="M5.72662 8.64006C5 10.0661 5 11.933 5 15.6667V24.3333C5 28.067 5 29.9339 5.72662 31.3599C6.18192 32.2535 6.8304 33.0281 7.61923 33.6308C7.37585 33.3122 7.16048 32.9708 6.97662 32.6099C6.25 31.1839 6.25 29.317 6.25 25.5833V16.9167C6.25 13.183 6.25 11.3161 6.97662 9.89006C7.61578 8.63565 8.63565 7.61578 9.89006 6.97662C11.3161 6.25 13.183 6.25 16.9167 6.25H25.5833C29.317 6.25 31.1839 6.25 32.6099 6.97662C32.9708 7.16048 33.3122 7.37585 33.6308 7.61923C33.0281 6.8304 32.2535 6.18192 31.3599 5.72662C29.9339 5 28.067 5 24.3333 5H15.6667C11.933 5 10.0661 5 8.64006 5.72662C7.38565 6.36578 6.36578 7.38565 5.72662 8.64006Z" fill="#1C0B33"/>
<path opacity="0.7" fill-rule="evenodd" clip-rule="evenodd" d="M17.1551 13.8214C17.806 13.1705 18.8613 13.1705 19.5122 13.8214L24.5122 18.8214C25.163 19.4723 25.163 20.5276 24.5122 21.1784L19.5122 26.1784C18.8613 26.8293 17.806 26.8293 17.1551 26.1784C16.5043 25.5276 16.5043 24.4723 17.1551 23.8214L20.9766 19.9999L17.1551 16.1784C16.5043 15.5276 16.5043 14.4723 17.1551 13.8214Z" fill="#1C0B33"/>
<g filter="url(#filter0_bi_5685_47)">
<path d="M5 15.6667C5 11.933 5 10.0661 5.72662 8.64006C6.36578 7.38565 7.38565 6.36578 8.64006 5.72662C10.0661 5 11.933 5 15.6667 5H24.3333C28.067 5 29.9339 5 31.3599 5.72662C32.6143 6.36578 33.6342 7.38565 34.2734 8.64006C35 10.0661 35 11.933 35 15.6667V24.3333C35 28.067 35 29.9339 34.2734 31.3599C33.6342 32.6143 32.6143 33.6342 31.3599 34.2734C29.9339 35 28.067 35 24.3333 35H15.6667C11.933 35 10.0661 35 8.64006 34.2734C7.38565 33.6342 6.36578 32.6143 5.72662 31.3599C5 29.9339 5 28.067 5 24.3333V15.6667Z" fill="#1C0B33" fill-opacity="0.24"/>
<path d="M5.5 15.6667C5.5 13.7916 5.50039 12.4153 5.58917 11.3287C5.67747 10.248 5.85072 9.49786 6.17213 8.86706C6.76335 7.70673 7.70673 6.76335 8.86706 6.17213C9.49786 5.85072 10.248 5.67747 11.3287 5.58917C12.4153 5.50039 13.7916 5.5 15.6667 5.5H24.3333C26.2084 5.5 27.5847 5.50039 28.6713 5.58917C29.752 5.67747 30.5021 5.85072 31.1329 6.17213C32.2933 6.76335 33.2367 7.70673 33.8279 8.86706C34.1493 9.49786 34.3225 10.248 34.4108 11.3287C34.4996 12.4153 34.5 13.7916 34.5 15.6667V24.3333C34.5 26.2084 34.4996 27.5847 34.4108 28.6713C34.3225 29.752 34.1493 30.5021 33.8279 31.1329C33.2367 32.2933 32.2933 33.2367 31.1329 33.8279C30.5021 34.1493 29.752 34.3225 28.6713 34.4108C27.5847 34.4996 26.2084 34.5 24.3333 34.5H15.6667C13.7916 34.5 12.4153 34.4996 11.3287 34.4108C10.248 34.3225 9.49786 34.1493 8.86706 33.8279C7.70673 33.2367 6.76335 32.2933 6.17213 31.1329C5.85072 30.5021 5.67747 29.752 5.58917 28.6713C5.50039 27.5847 5.5 26.2084 5.5 24.3333V15.6667Z" stroke="url(#paint0_linear_5685_47)"/>
</g>
<path fill-rule="evenodd" clip-rule="evenodd" d="M17.1547 13.8215C17.8055 13.1707 18.8608 13.1707 19.5117 13.8215L24.5117 18.8215C25.1626 19.4724 25.1626 20.5277 24.5117 21.1786L19.5117 26.1786C18.8608 26.8294 17.8055 26.8294 17.1547 26.1786C16.5038 25.5277 16.5038 24.4724 17.1547 23.8215L20.9761 20L17.1547 16.1786C16.5038 15.5277 16.5038 14.4724 17.1547 13.8215Z" fill="#1C0B33"/>
<defs>
<filter id="filter0_bi_5685_47" x="-10" y="-10" width="60" height="60" filterUnits="userSpaceOnUse" color-interpolation-filters="sRGB">
<feFlood flood-opacity="0" result="BackgroundImageFix"/>
<feGaussianBlur in="BackgroundImageFix" stdDeviation="7.5"/>
<feComposite in2="SourceAlpha" operator="in" result="effect1_backgroundBlur_5685_47"/>
<feBlend mode="normal" in="SourceGraphic" in2="effect1_backgroundBlur_5685_47" result="shape"/>
<feColorMatrix in="SourceAlpha" type="matrix" values="0 0 0 0 0 0 0 0 0 0 0 0 0 0 0 0 0 0 127 0" result="hardAlpha"/>
<feOffset/>
<feGaussianBlur stdDeviation="7.5"/>
<feComposite in2="hardAlpha" operator="arithmetic" k2="-1" k3="1"/>
<feColorMatrix type="matrix" values="0 0 0 0 0.666667 0 0 0 0 0.380392 0 0 0 0 0.94902 0 0 0 0.1 0"/>
<feBlend mode="normal" in2="shape" result="effect2_innerShadow_5685_47"/>
</filter>
<linearGradient id="paint0_linear_5685_47" x1="6.875" y1="5.48387" x2="27.1854" y2="39.7815" gradientUnits="userSpaceOnUse">
<stop stop-color="#FE4CB4" stop-opacity="0.1"/>
<stop offset="1" stop-color="#FE4CB4" stop-opacity="0"/>
</linearGradient>
</defs>
</svg>
