<svg width="40" height="40" viewBox="0 0 40 40" fill="none" xmlns="http://www.w3.org/2000/svg">
<path opacity="0.7" fill-rule="evenodd" clip-rule="evenodd" d="M25.9468 5C25.5262 4.99995 25.1165 4.99991 24.7696 5.02825C24.3886 5.05938 23.9391 5.13282 23.4867 5.36332C22.8595 5.6829 22.3496 6.19283 22.03 6.82004C21.7995 7.27241 21.726 7.72197 21.6949 8.10296C21.6666 8.44989 21.6666 8.85954 21.6667 9.28018V14.0532C21.6666 14.4738 21.6666 14.8835 21.6949 15.2304C21.726 15.6114 21.7995 16.0609 22.03 16.5133C22.3264 17.0951 22.7867 17.576 23.3524 17.8977C23.3273 17.8535 23.3031 17.8087 23.28 17.7633C23.0495 17.3109 22.976 16.8614 22.9449 16.4804C22.9166 16.1335 22.9166 15.7238 22.9167 15.3032V10.5302C22.9166 10.1095 22.9166 9.69989 22.9449 9.35296C22.976 8.97197 23.0495 8.52241 23.28 8.07004C23.5996 7.44283 24.1095 6.9329 24.7367 6.61332C25.1891 6.38283 25.6386 6.30938 26.0196 6.27825C26.3665 6.24991 26.7762 6.24995 27.1968 6.25H31.9699C32.3905 6.24995 32.8001 6.24991 33.1471 6.27825C33.528 6.30938 33.9776 6.38283 34.43 6.61332C34.4754 6.63646 34.5202 6.6606 34.5643 6.6857C34.2427 6.12 33.7618 5.65976 33.18 5.36332C32.7276 5.13282 32.278 5.05938 31.8971 5.02825C31.5501 4.99991 31.1405 4.99995 30.7199 5L25.9468 5ZM9.28018 21.6667C8.85954 21.6666 8.44989 21.6666 8.10296 21.6949C7.72197 21.726 7.27241 21.7995 6.82004 22.03C6.19283 22.3496 5.6829 22.8595 5.36332 23.4867C5.13282 23.9391 5.05938 24.3886 5.02825 24.7696C4.99991 25.1165 4.99995 25.5262 5 25.9468L5 30.7198C4.99995 31.1405 4.99991 31.5501 5.02825 31.8971C5.05938 32.278 5.13282 32.7276 5.36332 33.18C5.65976 33.7618 6.12 34.2427 6.6857 34.5643C6.6606 34.5202 6.63646 34.4754 6.61332 34.43C6.38283 33.9776 6.30938 33.528 6.27825 33.1471C6.24991 32.8001 6.24995 32.3905 6.25 31.9698V27.1968C6.24995 26.7762 6.24991 26.3665 6.27825 26.0196C6.30938 25.6386 6.38283 25.1891 6.61332 24.7367C6.9329 24.1095 7.44283 23.5996 8.07004 23.28C8.52241 23.0495 8.97197 22.976 9.35296 22.9449C9.69989 22.9166 10.1095 22.9166 10.5302 22.9167H15.3032C15.7238 22.9166 16.1335 22.9166 16.4804 22.9449C16.8614 22.976 17.3109 23.0495 17.7633 23.28C17.8087 23.3031 17.8535 23.3273 17.8977 23.3524C17.576 22.7867 17.0951 22.3264 16.5133 22.03C16.0609 21.7995 15.6114 21.726 15.2304 21.6949C14.8835 21.6666 14.4738 21.6666 14.0532 21.6667H9.28018ZM24.7696 21.6949C25.1166 21.6666 25.5262 21.6666 25.9468 21.6667H30.7198C31.1405 21.6666 31.5501 21.6666 31.8971 21.6949C32.278 21.726 32.7276 21.7995 33.18 22.03C33.7618 22.3264 34.2427 22.7867 34.5643 23.3524C34.5202 23.3273 34.4754 23.3031 34.43 23.28C33.9776 23.0495 33.528 22.976 33.1471 22.9449C32.8001 22.9166 32.3905 22.9166 31.9698 22.9167H27.1968C26.7762 22.9166 26.3666 22.9166 26.0196 22.9449C25.6386 22.976 25.1891 23.0495 24.7367 23.28C24.1095 23.5996 23.5996 24.1095 23.28 24.7367C23.0495 25.1891 22.976 25.6386 22.9449 26.0196C22.9166 26.3666 22.9166 26.7762 22.9167 27.1968V31.9698C22.9166 32.3905 22.9166 32.8001 22.9449 33.1471C22.976 33.528 23.0495 33.9776 23.28 34.43C23.3031 34.4754 23.3273 34.5202 23.3524 34.5643C22.7867 34.2427 22.3264 33.7618 22.03 33.18C21.7995 32.7276 21.726 32.278 21.6949 31.8971C21.6666 31.5501 21.6666 31.1405 21.6667 30.7198V25.9468C21.6666 25.5262 21.6666 25.1166 21.6949 24.7696C21.726 24.3886 21.7995 23.9391 22.03 23.4867C22.3496 22.8595 22.8595 22.3496 23.4867 22.03C23.9391 21.7995 24.3886 21.726 24.7696 21.6949Z" fill="#171750"/>
<g filter="url(#filter0_bi_5685_40)">
<path d="M25.9468 5C25.5262 4.99995 25.1166 4.99991 24.7696 5.02825C24.3886 5.05938 23.9391 5.13282 23.4867 5.36332C22.8595 5.6829 22.3496 6.19283 22.03 6.82004C21.7995 7.27241 21.726 7.72197 21.6949 8.10296C21.6666 8.44989 21.6666 8.85954 21.6667 9.28018V14.0532C21.6666 14.4738 21.6666 14.8835 21.6949 15.2304C21.726 15.6114 21.7995 16.0609 22.03 16.5133C22.3496 17.1405 22.8595 17.6505 23.4867 17.97C23.9391 18.2005 24.3886 18.274 24.7696 18.3051C25.1165 18.3334 25.5262 18.3334 25.9468 18.3333H30.7198C31.1405 18.3334 31.5501 18.3334 31.8971 18.3051C32.278 18.274 32.7276 18.2005 33.18 17.97C33.8072 17.6505 34.3171 17.1405 34.6367 16.5133C34.8672 16.0609 34.9406 15.6114 34.9718 15.2304C35.0001 14.8835 35.0001 14.4738 35 14.0532V9.28018C35.0001 8.85954 35.0001 8.44989 34.9718 8.10296C34.9406 7.72197 34.8672 7.27241 34.6367 6.82004C34.3171 6.19283 33.8072 5.6829 33.18 5.36332C32.7276 5.13282 32.278 5.05938 31.8971 5.02825C31.5501 4.99991 31.1405 4.99995 30.7199 5L25.9468 5Z" fill="#171750" fill-opacity="0.25"/>
<path d="M9.28018 21.6667C8.85954 21.6666 8.44989 21.6666 8.10296 21.6949C7.72197 21.726 7.27241 21.7995 6.82004 22.03C6.19283 22.3496 5.6829 22.8595 5.36332 23.4867C5.13282 23.9391 5.05938 24.3886 5.02825 24.7696C4.99991 25.1166 4.99995 25.5262 5 25.9468L5 30.7198C4.99995 31.1405 4.99991 31.5501 5.02825 31.8971C5.05938 32.278 5.13282 32.7276 5.36332 33.18C5.6829 33.8072 6.19283 34.3171 6.82004 34.6367C7.27241 34.8672 7.72197 34.9406 8.10296 34.9718C8.44989 35.0001 8.85954 35.0001 9.28018 35H14.0532C14.4738 35.0001 14.8835 35.0001 15.2304 34.9718C15.6114 34.9406 16.0609 34.8672 16.5133 34.6367C17.1405 34.3171 17.6505 33.8072 17.97 33.18C18.2005 32.7276 18.274 32.278 18.3051 31.8971C18.3334 31.5501 18.3334 31.1405 18.3333 30.7199V25.9468C18.3334 25.5262 18.3334 25.1165 18.3051 24.7696C18.274 24.3886 18.2005 23.9391 17.97 23.4867C17.6505 22.8595 17.1405 22.3496 16.5133 22.03C16.0609 21.7995 15.6114 21.726 15.2304 21.6949C14.8835 21.6666 14.4738 21.6666 14.0532 21.6667H9.28018Z" fill="#171750" fill-opacity="0.25"/>
<path d="M25.9468 21.6667C25.5262 21.6666 25.1166 21.6666 24.7696 21.6949C24.3886 21.726 23.9391 21.7995 23.4867 22.03C22.8595 22.3496 22.3496 22.8595 22.03 23.4867C21.7995 23.9391 21.726 24.3886 21.6949 24.7696C21.6666 25.1166 21.6666 25.5262 21.6667 25.9468V30.7198C21.6666 31.1405 21.6666 31.5501 21.6949 31.8971C21.726 32.278 21.7995 32.7276 22.03 33.18C22.3496 33.8072 22.8595 34.3171 23.4867 34.6367C23.9391 34.8672 24.3886 34.9406 24.7696 34.9718C25.1166 35.0001 25.5262 35.0001 25.9468 35H30.7198C31.1405 35.0001 31.5501 35.0001 31.8971 34.9718C32.278 34.9406 32.7276 34.8672 33.18 34.6367C33.8072 34.3171 34.3171 33.8072 34.6367 33.18C34.8672 32.7276 34.9406 32.278 34.9718 31.8971C35.0001 31.5501 35.0001 31.1405 35 30.7198V25.9468C35.0001 25.5262 35.0001 25.1166 34.9718 24.7696C34.9406 24.3886 34.8672 23.9391 34.6367 23.4867C34.3171 22.8595 33.8072 22.3496 33.18 22.03C32.7276 21.7995 32.278 21.726 31.8971 21.6949C31.5501 21.6666 31.1405 21.6666 30.7198 21.6667H25.9468Z" fill="#171750" fill-opacity="0.25"/>
<path d="M25.9468 5.5H25.9468H30.7199H30.7199C31.1465 5.49995 31.5339 5.50025 31.8563 5.52659C32.2062 5.55517 32.5827 5.62016 32.953 5.80882C33.4861 6.08046 33.9196 6.51391 34.1912 7.04703C34.3799 7.41731 34.4448 7.79384 34.4734 8.14367C34.4998 8.46607 34.5001 8.85349 34.5 9.28012V9.28018V14.0532V14.0532C34.5001 14.4799 34.4998 14.8673 34.4734 15.1897C34.4448 15.5395 34.3799 15.916 34.1912 16.2863C33.9196 16.8194 33.4861 17.2529 32.953 17.5245C32.5827 17.7132 32.2062 17.7782 31.8563 17.8068C31.534 17.8331 31.1465 17.8334 30.7199 17.8333H30.7198H25.9468H25.9467C25.5201 17.8334 25.1327 17.8331 24.8103 17.8068C24.4605 17.7782 24.084 17.7132 23.7137 17.5245C23.1806 17.2529 22.7471 16.8194 22.4755 16.2863C22.2868 15.916 22.2218 15.5395 22.1933 15.1897C22.1669 14.8673 22.1666 14.4799 22.1667 14.0532V14.0532V9.28018V9.28012C22.1666 8.85349 22.1669 8.46607 22.1933 8.14368C22.2218 7.79384 22.2868 7.41731 22.4755 7.04704C22.7471 6.51391 23.1806 6.08046 23.7137 5.80882C24.084 5.62016 24.4605 5.55517 24.8103 5.52659C25.1327 5.50025 25.5202 5.49995 25.9468 5.5ZM9.28012 22.1667H9.28018H14.0532H14.0532C14.4799 22.1666 14.8673 22.1669 15.1897 22.1933C15.5395 22.2218 15.916 22.2868 16.2863 22.4755C16.8194 22.7471 17.2529 23.1806 17.5245 23.7137C17.7132 24.084 17.7782 24.4605 17.8068 24.8103C17.8331 25.1327 17.8334 25.5202 17.8333 25.9468V25.9468V30.7199V30.72C17.8334 31.1466 17.8331 31.534 17.8068 31.8563C17.7782 32.2062 17.7132 32.5827 17.5245 32.953C17.2529 33.4861 16.8194 33.9196 16.2863 34.1912C15.916 34.3799 15.5395 34.4448 15.1897 34.4734C14.8673 34.4998 14.4799 34.5001 14.0532 34.5H14.0532H9.28018H9.28012C8.85349 34.5001 8.46607 34.4998 8.14368 34.4734C7.79384 34.4448 7.41731 34.3799 7.04704 34.1912C6.51391 33.9196 6.08046 33.4861 5.80882 32.953C5.62016 32.5827 5.55517 32.2062 5.52659 31.8563C5.50025 31.5339 5.49995 31.1465 5.5 30.7199V30.7198V25.9468V25.9468C5.49995 25.5201 5.50025 25.1327 5.52659 24.8103C5.55517 24.4605 5.62016 24.084 5.80882 23.7137C6.08046 23.1806 6.51391 22.7471 7.04704 22.4755C7.41731 22.2868 7.79384 22.2218 8.14367 22.1933C8.46607 22.1669 8.85349 22.1666 9.28012 22.1667ZM25.9468 22.1667H25.9468H30.7198H30.7199C31.1465 22.1666 31.5339 22.1669 31.8563 22.1933C32.2062 22.2218 32.5827 22.2868 32.953 22.4755C33.4861 22.7471 33.9196 23.1806 34.1912 23.7137C34.3799 24.084 34.4448 24.4605 34.4734 24.8103C34.4998 25.1327 34.5001 25.5202 34.5 25.9468V25.9468V30.7198V30.7199C34.5001 31.1465 34.4998 31.5339 34.4734 31.8563C34.4448 32.2062 34.3799 32.5827 34.1912 32.953C33.9196 33.4861 33.4861 33.9196 32.953 34.1912C32.5827 34.3799 32.2062 34.4448 31.8563 34.4734C31.5339 34.4998 31.1465 34.5001 30.7199 34.5H30.7198H25.9468H25.9468C25.5202 34.5001 25.1327 34.4998 24.8103 34.4734C24.4605 34.4448 24.084 34.3799 23.7137 34.1912C23.1806 33.9196 22.7471 33.4861 22.4755 32.953C22.2868 32.5827 22.2218 32.2062 22.1933 31.8563C22.1669 31.5339 22.1666 31.1465 22.1667 30.7199V30.7198V25.9468V25.9468C22.1666 25.5202 22.1669 25.1327 22.1933 24.8103C22.2218 24.4605 22.2868 24.084 22.4755 23.7137C22.7471 23.1806 23.1806 22.7471 23.7137 22.4755C24.084 22.2868 24.4605 22.2218 24.8103 22.1933C25.1327 22.1669 25.5202 22.1666 25.9468 22.1667Z" stroke="url(#paint0_linear_5685_40)"/>
</g>
<path d="M9.28018 5C8.85955 4.99995 8.44988 4.99991 8.10296 5.02825C7.72197 5.05938 7.27241 5.13282 6.82004 5.36332C6.19283 5.6829 5.6829 6.19283 5.36332 6.82004C5.13282 7.27241 5.05938 7.72197 5.02825 8.10296C4.99991 8.44988 4.99995 8.85953 5 9.28016L5 14.0532C4.99995 14.4738 4.99991 14.8835 5.02825 15.2304C5.05938 15.6114 5.13282 16.0609 5.36332 16.5133C5.6829 17.1405 6.19283 17.6505 6.82004 17.97C7.27241 18.2005 7.72197 18.274 8.10296 18.3051C8.44987 18.3334 8.8595 18.3334 9.28012 18.3333H14.0532C14.4738 18.3334 14.8835 18.3334 15.2304 18.3051C15.6114 18.274 16.0609 18.2005 16.5133 17.97C17.1405 17.6505 17.6505 17.1405 17.97 16.5133C18.2005 16.0609 18.274 15.6114 18.3051 15.2304C18.3334 14.8835 18.3334 14.4738 18.3333 14.0532V9.28018C18.3334 8.85956 18.3334 8.44987 18.3051 8.10296C18.274 7.72197 18.2005 7.27241 17.97 6.82004C17.6505 6.19283 17.1405 5.6829 16.5133 5.36332C16.0609 5.13282 15.6114 5.05938 15.2304 5.02825C14.8835 4.99991 14.4738 4.99995 14.0532 5L9.28018 5Z" fill="#171750"/>
<defs>
<filter id="filter0_bi_5685_40" x="-10" y="-10" width="60" height="60" filterUnits="userSpaceOnUse" color-interpolation-filters="sRGB">
<feFlood flood-opacity="0" result="BackgroundImageFix"/>
<feGaussianBlur in="BackgroundImageFix" stdDeviation="7.5"/>
<feComposite in2="SourceAlpha" operator="in" result="effect1_backgroundBlur_5685_40"/>
<feBlend mode="normal" in="SourceGraphic" in2="effect1_backgroundBlur_5685_40" result="shape"/>
<feColorMatrix in="SourceAlpha" type="matrix" values="0 0 0 0 0 0 0 0 0 0 0 0 0 0 0 0 0 0 127 0" result="hardAlpha"/>
<feOffset/>
<feGaussianBlur stdDeviation="7.5"/>
<feComposite in2="hardAlpha" operator="arithmetic" k2="-1" k3="1"/>
<feColorMatrix type="matrix" values="0 0 0 0 0.996078 0 0 0 0 0.6 0 0 0 0 0.0509804 0 0 0 0.1 0"/>
<feBlend mode="normal" in2="shape" result="effect2_innerShadow_5685_40"/>
</filter>
<linearGradient id="paint0_linear_5685_40" x1="6.875" y1="5.48387" x2="27.1854" y2="39.7815" gradientUnits="userSpaceOnUse">
<stop stop-color="#FE990D" stop-opacity="0.1"/>
<stop offset="1" stop-color="#FE990D" stop-opacity="0"/>
</linearGradient>
</defs>
</svg>
